<svg viewBox="0 0 475 223" xmlns="http://www.w3.org/2000/svg">
<path fill-rule="evenodd" clip-rule="evenodd" d="M475 0H0V223H475V0ZM144.28 70.16C142.92 68.72 141.12 68 138.88 68C135.92 68 133.56 69.72 131.8 73.16L105.28 123.92L78.64 73.16C76.88 69.72 74.44 68 71.32 68C69.08 68 67.28 68.72 65.92 70.16C64.64 71.52 64 73.36 64 75.68V146.72C64 148.96 64.6 150.72 65.8 152C67 153.28 68.64 153.92 70.72 153.92C72.8 153.92 74.44 153.28 75.64 152C76.92 150.64 77.56 148.88 77.56 146.72V97.88L98.08 135.92C99.04 137.76 100.08 139.08 101.2 139.88C102.32 140.68 103.64 141.08 105.16 141.08C106.68 141.08 108 140.68 109.12 139.88C110.24 139 111.28 137.68 112.24 135.92L132.64 97.28V146.72C132.64 148.96 133.24 150.72 134.44 152C135.64 153.28 137.28 153.92 139.36 153.92C141.44 153.92 143.12 153.28 144.4 152C145.68 150.72 146.32 148.96 146.32 146.72V75.68C146.32 73.36 145.64 71.52 144.28 70.16ZM234.018 70.16C232.738 68.72 230.978 68 228.738 68C226.578 68 224.818 68.72 223.458 70.16C222.178 71.52 221.538 73.36 221.538 75.68V127.52L177.858 70.76C176.498 68.92 174.578 68 172.098 68C169.858 68 168.058 68.72 166.698 70.16C165.338 71.52 164.658 73.36 164.658 75.68V146.12C164.658 148.44 165.298 150.32 166.578 151.76C167.858 153.2 169.618 153.92 171.858 153.92C174.098 153.92 175.858 153.2 177.138 151.76C178.418 150.32 179.058 148.44 179.058 146.12V94.16L222.858 151.16C224.218 153 226.178 153.92 228.738 153.92C230.898 153.92 232.658 153.2 234.018 151.76C235.378 150.32 236.058 148.44 236.058 146.12V75.68C236.058 73.36 235.378 71.52 234.018 70.16ZM329.427 68C331.667 68 333.467 68.72 334.827 70.16C336.187 71.52 336.867 73.36 336.867 75.68V146.72C336.867 148.96 336.227 150.72 334.947 152C333.667 153.28 331.987 153.92 329.907 153.92C327.827 153.92 326.187 153.28 324.987 152C323.787 150.72 323.187 148.96 323.187 146.72V97.28L302.787 135.92C301.827 137.68 300.787 139 299.667 139.88C298.547 140.68 297.227 141.08 295.707 141.08C294.187 141.08 292.867 140.68 291.747 139.88C290.627 139.08 289.587 137.76 288.627 135.92L268.107 97.88V146.72C268.107 148.88 267.467 150.64 266.187 152C264.987 153.28 263.347 153.92 261.267 153.92C259.187 153.92 257.547 153.28 256.347 152C255.147 150.72 254.547 148.96 254.547 146.72V75.68C254.547 73.36 255.187 71.52 256.467 70.16C257.827 68.72 259.627 68 261.867 68C264.987 68 267.427 69.72 269.187 73.16L295.827 123.92L322.347 73.16C324.107 69.72 326.467 68 329.427 68ZM357.125 151.28C358.405 152.56 360.205 153.2 362.525 153.2H404.405C409.205 153.2 411.605 151.08 411.605 146.84C411.605 142.6 409.205 140.48 404.405 140.48H370.685V75.68C370.685 73.36 369.965 71.52 368.525 70.16C367.165 68.72 365.285 68 362.885 68C360.565 68 358.685 68.72 357.245 70.16C355.885 71.52 355.205 73.36 355.205 75.68V146C355.205 148.24 355.845 150 357.125 151.28Z"/>
</svg>
